<svg width="24" height="24" viewBox="0 0 24 24" fill="none" xmlns="http://www.w3.org/2000/svg">
<path fill-rule="evenodd" clip-rule="evenodd" d="M21.709 7.56191L21.0091 6.4381C20.417 5.48718 19.1049 5.15914 18.0758 5.70476C17.586 5.97178 17.0015 6.04753 16.4512 5.91532C15.901 5.78311 15.4301 5.4538 15.1425 5C14.9575 4.71156 14.8581 4.38302 14.8544 4.04762C14.8711 3.50988 14.6518 2.98879 14.2466 2.60305C13.8414 2.21731 13.2847 1.99978 12.7033 2H11.2933C10.7237 2 10.1776 2.21001 9.77586 2.58357C9.37409 2.95713 9.14976 3.46345 9.1525 3.99048C9.13561 5.07861 8.17748 5.95249 7.00143 5.95238C6.63897 5.9489 6.28392 5.85691 5.97221 5.68571C4.94317 5.14009 3.63103 5.46813 3.03894 6.41905L2.28761 7.56191C1.69623 8.51163 2.04592 9.72505 3.06981 10.2762C3.73536 10.6318 4.14536 11.2889 4.14536 12C4.14536 12.7111 3.73536 13.3682 3.06981 13.7238C2.04722 14.2712 1.69715 15.4817 2.28761 16.4286L2.99777 17.5619C3.27519 18.0251 3.74065 18.3669 4.29115 18.5117C4.84166 18.6565 5.43182 18.5923 5.93104 18.3333C6.4218 18.0683 7.00663 17.9957 7.55551 18.1317C8.1044 18.2676 8.57187 18.6008 8.85402 19.0571C9.03903 19.3456 9.13844 19.6741 9.1422 20.0095C9.1422 21.1088 10.1053 22 11.2933 22H12.7033C13.8873 22 14.8487 21.1146 14.8544 20.019C14.8516 19.4904 15.0774 18.9826 15.4814 18.6088C15.8854 18.2349 16.4341 18.026 17.0054 18.0286C17.367 18.0375 17.7206 18.1291 18.0347 18.2952C19.061 18.8425 20.3723 18.5189 20.9679 17.5714L21.709 16.4286C21.9958 15.973 22.0745 15.4304 21.9277 14.9209C21.7809 14.4115 21.4207 13.9772 20.9268 13.7143C20.4329 13.4514 20.0726 13.0171 19.9258 12.5076C19.779 11.9982 19.8577 11.4556 20.1446 11C20.3311 10.6987 20.6011 10.4488 20.9268 10.2762C21.9445 9.72535 22.2934 8.51902 21.709 7.57143V7.56191Z" stroke="#1C1D21" stroke-width="2" stroke-linecap="round" stroke-linejoin="round"/>
<path d="M12.0034 14.7427C13.6404 14.7427 14.9674 13.5147 14.9674 12C14.9674 10.4852 13.6404 9.25729 12.0034 9.25729C10.3665 9.25729 9.03944 10.4852 9.03944 12C9.03944 13.5147 10.3665 14.7427 12.0034 14.7427Z" stroke="#1C1D21" stroke-width="2" stroke-linecap="round" stroke-linejoin="round"/>
</svg>
