<svg width="24" height="24" viewBox="0 0 24 24" fill="none" xmlns="http://www.w3.org/2000/svg">
<path d="M15 12L15.7071 12.7071C16.0976 12.3166 16.0976 11.6834 15.7071 11.2929L15 12ZM11.7071 7.29289C11.3166 6.90237 10.6834 6.90237 10.2929 7.29289C9.90237 7.68342 9.90237 8.31658 10.2929 8.70711L11.7071 7.29289ZM10.2929 15.2929C9.90237 15.6834 9.90237 16.3166 10.2929 16.7071C10.6834 17.0976 11.3166 17.0976 11.7071 16.7071L10.2929 15.2929ZM2 11C1.44772 11 1 11.4477 1 12C1 12.5523 1.44772 13 2 13V11ZM3.74844 15.5996C3.52732 15.0935 2.9378 14.8625 2.43172 15.0836C1.92563 15.3048 1.69462 15.8943 1.91573 16.4004L3.74844 15.5996ZM1.91573 7.59963C1.69462 8.10572 1.92563 8.69523 2.43172 8.91635C2.9378 9.13747 3.52732 8.90646 3.74844 8.40037L1.91573 7.59963ZM21 12C21 16.9706 16.9706 21 12 21V23C18.0751 23 23 18.0751 23 12H21ZM12 3C16.9706 3 21 7.02944 21 12H23C23 5.92487 18.0751 1 12 1V3ZM15.7071 11.2929L11.7071 7.29289L10.2929 8.70711L14.2929 12.7071L15.7071 11.2929ZM14.2929 11.2929L10.2929 15.2929L11.7071 16.7071L15.7071 12.7071L14.2929 11.2929ZM2 13H15V11H2V13ZM12 21C8.31098 21 5.13816 18.7803 3.74844 15.5996L1.91573 16.4004C3.61225 20.2833 7.48774 23 12 23V21ZM3.74844 8.40037C5.13816 5.21965 8.31098 3 12 3V1C7.48774 1 3.61225 3.71673 1.91573 7.59963L3.74844 8.40037Z" fill="#1C1D21"/>
</svg>
