<svg width="24" height="24" viewBox="0 0 24 24" fill="none" xmlns="http://www.w3.org/2000/svg">
<path d="M21.9895 12.1871C21.9895 11.3677 21.9214 10.7697 21.7742 10.1497H12.1992V13.848H17.8195C17.7062 14.7671 17.0943 16.1512 15.7346 17.0813L15.7155 17.2051L18.7429 19.4969L18.9527 19.5174C20.8789 17.7789 21.9895 15.221 21.9895 12.1871Z" fill="#4285F4"/>
<path d="M12.1992 21.9313C14.9527 21.9313 17.2642 21.0454 18.9526 19.5174L15.7345 17.0813C14.8734 17.6682 13.7176 18.0779 12.1992 18.0779C9.50236 18.0779 7.21346 16.3395 6.39753 13.9366L6.27793 13.9466L3.12997 16.3273L3.08881 16.4391C4.76582 19.6945 8.21054 21.9313 12.1992 21.9313Z" fill="#34A853"/>
<path d="M6.39754 13.9366C6.18225 13.3165 6.05765 12.6521 6.05765 11.9656C6.05765 11.279 6.18225 10.6147 6.38621 9.9946L6.38051 9.86253L3.1931 7.4436L3.08882 7.49208C2.39764 8.84299 2.00104 10.36 2.00104 11.9656C2.00104 13.5712 2.39764 15.0881 3.08882 16.439L6.39754 13.9366Z" fill="#FBBC05"/>
<path d="M12.1992 5.85336C14.1142 5.85336 15.4059 6.66168 16.1425 7.33717L19.0206 4.59107C17.253 2.9855 14.9527 2 12.1992 2C8.21054 2 4.76582 4.23672 3.08881 7.49214L6.3862 9.99466C7.21346 7.59183 9.50236 5.85336 12.1992 5.85336Z" fill="#EB4335"/>
</svg>
