<svg width="24" height="24" viewBox="0 0 24 24" fill="none" xmlns="http://www.w3.org/2000/svg">
<path d="M17.63 17C15.26 17.0323 12.9729 16.1284 11.2654 14.4845C9.55784 12.8406 8.56772 10.5895 8.51 8.22C8.51045 7.05734 8.74637 5.90682 9.20353 4.83781C9.66069 3.76881 10.3296 2.80346 11.17 2C8.67869 2.24598 6.36563 3.40221 4.67367 5.24731C2.98171 7.09242 2.02973 9.49675 2 12C2.06038 14.7063 3.19095 17.2784 5.14403 19.1527C7.09712 21.0271 9.71349 22.0509 12.42 22C14.4355 22.0176 16.4129 21.4508 18.1131 20.3683C19.8132 19.2857 21.1633 17.7337 22 15.9C20.6555 16.6194 19.1548 16.9971 17.63 17V17Z" stroke="black" stroke-width="2" stroke-linecap="round" stroke-linejoin="round"/>
</svg>
