<svg width="99" height="50" viewBox="0 0 99 50" fill="none" xmlns="http://www.w3.org/2000/svg">
<path d="M40 27C40 27 35.5228 34 30 34C24.4772 34 20 27 20 27C20 27 24.4772 20 30 20C35.5228 20 40 27 40 27Z" stroke="black" stroke-width="2" stroke-miterlimit="10" stroke-linejoin="round"/>
<path d="M33 27C33 28.6569 31.6569 30 30 30C28.3431 30 27 28.6569 27 27C27 25.3431 28.3431 24 30 24C31.6569 24 33 25.3431 33 27Z" stroke="black" stroke-width="2" stroke-miterlimit="10" stroke-linejoin="round"/>
<path d="M75 27C75 28.6569 73.6569 30 72 30C70.3431 30 69 28.6569 69 27M62.714 26C62.2534 26.6038 62 27 62 27C62 27 66.4772 34 72 34C77.5228 34 82 27 82 27C82 27 81.7466 26.6038 81.286 26M62.714 26C64.1894 24.0656 67.791 20 72 20C76.209 20 79.8106 24.0656 81.286 26M62.714 26C69.9664 27.1821 74.0337 27.1657 81.286 26" stroke="black" stroke-width="2" stroke-miterlimit="10" stroke-linejoin="round"/>
<rect x="0.5" y="0.5" width="98" height="49" rx="4.5" stroke="#9747FF" stroke-dasharray="10 5"/>
</svg>
