<svg width="24" height="24" viewBox="0 0 24 24" fill="none" xmlns="http://www.w3.org/2000/svg">
<path d="M5.33333 19.1569C5.33333 15.475 8.3181 12.4902 12 12.4902C15.6819 12.4902 18.6667 15.475 18.6667 19.1569M15.2353 8.76471C15.2353 10.5515 13.7868 12 12 12C10.2132 12 8.76471 10.5515 8.76471 8.76471C8.76471 6.9779 10.2132 5.52941 12 5.52941C13.7868 5.52941 15.2353 6.9779 15.2353 8.76471ZM22 12C22 17.5228 17.5228 22 12 22C6.47715 22 2 17.5228 2 12C2 6.47715 6.47715 2 12 2C17.5228 2 22 6.47715 22 12Z" stroke="#1C1D21" stroke-width="2" stroke-miterlimit="10"/>
</svg>
